<?xml version="1.0" encoding="utf-8"?>
<!-- Generator: Adobe Illustrator 21.1.0, SVG Export Plug-In . SVG Version: 6.00 Build 0)  -->
<svg version="1.1" id="Layer_1" xmlns="http://www.w3.org/2000/svg" xmlns:xlink="http://www.w3.org/1999/xlink" x="0px" y="0px"
	 viewBox="0 0 789.4 202.2" style="enable-background:new 0 0 789.4 202.2;" xml:space="preserve">
<style type="text/css">
	.st0{fill:none;stroke:#FFFFFF;stroke-width:7;stroke-miterlimit:10;}
	.st1{fill:#FFFFFF;}
</style>
<path class="st0" d="M154.9,158.6H85.1c-2.9,0-5.2-1.5-5.2-3.4V55.4c0-1.9,2.3-3.4,5.2-3.4H695c2.9,0,5.2,1.5,5.2,3.4v99.8
	c0,1.9-2.3,3.4-5.2,3.4h-66.6"/>
<g>
	<path class="st1" d="M238.6,117l-6.2-20.2h-0.2c0.2,4.1,0.3,6.8,0.3,8.2v12h-4.9V91.3h7.4l6.1,19.7h0.1l6.5-19.7h7.4V117h-5.1
		v-12.2c0-0.6,0-1.2,0-2s0.1-2.7,0.2-6h-0.2l-6.6,20.1H238.6z"/>
	<path class="st1" d="M284.6,117l-1.9-6.1h-9.4l-1.9,6.1h-5.9l9.1-25.8h6.7l9.1,25.8H284.6z M281.5,106.4c-1.7-5.5-2.7-8.7-2.9-9.4
		s-0.4-1.3-0.5-1.7c-0.4,1.5-1.5,5.2-3.3,11.1H281.5z"/>
	<path class="st1" d="M306.4,107.2v9.9h-5.4V91.3h7.5c3.5,0,6.1,0.6,7.8,1.9s2.5,3.2,2.5,5.8c0,1.5-0.4,2.9-1.2,4s-2,2.1-3.5,2.8
		c3.9,5.8,6.4,9.5,7.6,11.2h-6l-6.1-9.9H306.4z M306.4,102.8h1.8c1.7,0,3-0.3,3.8-0.9s1.2-1.5,1.2-2.7c0-1.2-0.4-2.1-1.3-2.6
		s-2.1-0.8-3.9-0.8h-1.7V102.8z"/>
	<path class="st1" d="M352.6,117h-6.2l-6.7-10.8l-2.3,1.7v9.2h-5.4V91.3h5.4v11.8l2.1-3l7-8.7h6l-9,11.4L352.6,117z"/>
	<path class="st1" d="M418.9,117H412l-11.2-19.4h-0.2c0.2,3.4,0.3,5.9,0.3,7.3V117h-4.9V91.3h6.9l11.2,19.2h0.1
		c-0.2-3.3-0.3-5.7-0.3-7.1V91.3h4.9V117z"/>
	<path class="st1" d="M455.9,104.2c0,4.3-1.1,7.5-3.2,9.8s-5.1,3.4-9.1,3.4s-7-1.1-9.1-3.4s-3.2-5.6-3.2-9.8s1.1-7.5,3.2-9.8
		s5.1-3.4,9.1-3.4s7,1.1,9.1,3.4S455.9,99.9,455.9,104.2z M437.1,104.2c0,2.9,0.5,5,1.6,6.5s2.7,2.2,4.9,2.2c4.3,0,6.5-2.9,6.5-8.7
		c0-5.8-2.2-8.7-6.5-8.7c-2.2,0-3.8,0.7-4.9,2.2S437.1,101.3,437.1,104.2z"/>
	<path class="st1" d="M491.7,104.2c0,4.3-1.1,7.5-3.2,9.8s-5.1,3.4-9.1,3.4s-7-1.1-9.1-3.4s-3.2-5.6-3.2-9.8s1.1-7.5,3.2-9.8
		s5.1-3.4,9.1-3.4s7,1.1,9.1,3.4S491.7,99.9,491.7,104.2z M473,104.2c0,2.9,0.5,5,1.6,6.5s2.7,2.2,4.9,2.2c4.3,0,6.5-2.9,6.5-8.7
		c0-5.8-2.2-8.7-6.5-8.7c-2.2,0-3.8,0.7-4.9,2.2S473,101.3,473,104.2z"/>
	<path class="st1" d="M527.1,117h-6.9L509,97.6h-0.2c0.2,3.4,0.3,5.9,0.3,7.3V117h-4.9V91.3h6.9l11.2,19.2h0.1
		c-0.2-3.3-0.3-5.7-0.3-7.1V91.3h4.9V117z"/>
	<path class="st1" d="M555.5,117h-14.8V91.3h14.8v4.5h-9.4v5.6h8.7v4.5h-8.7v6.6h9.4V117z"/>
</g>
<g>
	<path class="st1" d="M204,168h-4.1l-3.9-13.6c-0.2-0.6-0.4-1.5-0.6-2.6c-0.2-1.1-0.4-1.9-0.5-2.3c-0.1,0.7-0.3,1.5-0.5,2.6
		s-0.4,1.9-0.6,2.4l-3.8,13.6H186l-3-11.4l-3-11.4h3.8l3.3,13.3c0.5,2.1,0.9,4,1.1,5.7c0.1-0.9,0.3-1.9,0.5-3c0.2-1.1,0.4-2,0.6-2.7
		l3.7-13.3h3.7l3.8,13.4c0.4,1.2,0.8,3.1,1.2,5.6c0.2-1.5,0.5-3.4,1.1-5.7l3.2-13.3h3.8L204,168z"/>
	<path class="st1" d="M220.3,168.4c-2.7,0-4.8-0.8-6.3-2.4c-1.5-1.6-2.3-3.7-2.3-6.5c0-2.8,0.7-5,2.1-6.7c1.4-1.6,3.3-2.4,5.8-2.4
		c2.3,0,4.1,0.7,5.4,2.1c1.3,1.4,2,3.3,2,5.7v2h-11.5c0.1,1.7,0.5,3,1.4,3.9c0.9,0.9,2.1,1.4,3.6,1.4c1,0,2-0.1,2.9-0.3
		c0.9-0.2,1.8-0.5,2.8-1v3c-0.9,0.4-1.8,0.7-2.7,0.9C222.5,168.3,221.5,168.4,220.3,168.4z M219.7,153.2c-1.2,0-2.1,0.4-2.8,1.1
		c-0.7,0.7-1.1,1.8-1.3,3.2h7.8c0-1.4-0.4-2.5-1-3.2C221.7,153.6,220.8,153.2,219.7,153.2z"/>
	<path class="st1" d="M240,150.4c2.2,0,3.8,0.8,5,2.3s1.8,3.8,1.8,6.6c0,2.8-0.6,5-1.8,6.6s-2.9,2.4-5.1,2.4c-2.2,0-3.9-0.8-5.1-2.4
		h-0.2l-0.7,2h-2.8v-24.3h3.7v5.8c0,0.4,0,1.1-0.1,1.9c0,0.8-0.1,1.4-0.1,1.6h0.2C236.1,151.3,237.8,150.4,240,150.4z M239.1,153.4
		c-1.5,0-2.5,0.4-3.2,1.3c-0.7,0.9-1,2.3-1,4.4v0.2c0,2.1,0.3,3.6,1,4.6c0.7,0.9,1.8,1.4,3.3,1.4c1.3,0,2.3-0.5,3-1.5s1-2.5,1-4.5
		C243.1,155.4,241.8,153.4,239.1,153.4z"/>
	<path class="st1" d="M278.4,156.4c0,3.8-1,6.7-3.1,8.6c-2.1,2-5.1,3-9,3h-6.4v-22.8h7.1c3.6,0,6.5,1,8.5,2.9
		C277.4,150.1,278.4,152.9,278.4,156.4z M274.5,156.5c0-5.5-2.6-8.2-7.7-8.2h-3.2v16.6h2.7C271.7,164.9,274.5,162.1,274.5,156.5z"/>
	<path class="st1" d="M290.5,168.4c-2.7,0-4.8-0.8-6.3-2.4c-1.5-1.6-2.3-3.7-2.3-6.5c0-2.8,0.7-5,2.1-6.7c1.4-1.6,3.3-2.4,5.8-2.4
		c2.3,0,4.1,0.7,5.4,2.1c1.3,1.4,2,3.3,2,5.7v2h-11.5c0.1,1.7,0.5,3,1.4,3.9c0.9,0.9,2.1,1.4,3.6,1.4c1,0,2-0.1,2.9-0.3
		c0.9-0.2,1.8-0.5,2.8-1v3c-0.9,0.4-1.8,0.7-2.7,0.9C292.7,168.3,291.7,168.4,290.5,168.4z M289.8,153.2c-1.2,0-2.1,0.4-2.8,1.1
		c-0.7,0.7-1.1,1.8-1.3,3.2h7.8c0-1.4-0.4-2.5-1-3.2C291.9,153.6,291,153.2,289.8,153.2z"/>
	<path class="st1" d="M313,163.1c0,1.7-0.6,3-1.8,3.9c-1.2,0.9-3,1.4-5.3,1.4c-2.3,0-4.2-0.3-5.5-1v-3.2c2,0.9,3.9,1.4,5.7,1.4
		c2.3,0,3.4-0.7,3.4-2c0-0.4-0.1-0.8-0.4-1.1c-0.2-0.3-0.7-0.6-1.2-0.9c-0.6-0.3-1.4-0.7-2.4-1.1c-2-0.8-3.3-1.5-4-2.3
		c-0.7-0.8-1.1-1.8-1.1-3c0-1.5,0.6-2.6,1.8-3.4c1.2-0.8,2.8-1.2,4.9-1.2c2,0,4,0.4,5.8,1.2l-1.2,2.8c-1.9-0.8-3.4-1.2-4.7-1.2
		c-1.9,0-2.9,0.6-2.9,1.7c0,0.5,0.3,1,0.8,1.4c0.5,0.4,1.6,0.9,3.3,1.5c1.4,0.6,2.5,1.1,3.1,1.5c0.6,0.5,1.1,1,1.4,1.6
		C312.8,161.6,313,162.3,313,163.1z"/>
	<path class="st1" d="M316.7,146.2c0-0.7,0.2-1.2,0.5-1.5c0.4-0.4,0.9-0.5,1.5-0.5c0.6,0,1.1,0.2,1.5,0.5c0.4,0.4,0.5,0.9,0.5,1.5
		c0,0.6-0.2,1.1-0.5,1.5s-0.9,0.5-1.5,0.5c-0.7,0-1.2-0.2-1.5-0.5S316.7,146.8,316.7,146.2z M320.6,168H317v-17.3h3.7V168z"/>
	<path class="st1" d="M340.5,150.8v2l-3,0.5c0.3,0.4,0.5,0.8,0.7,1.3c0.2,0.5,0.3,1.1,0.3,1.7c0,1.8-0.6,3.2-1.8,4.2
		c-1.2,1-2.9,1.5-5.1,1.5c-0.6,0-1.1,0-1.5-0.1c-0.8,0.5-1.2,1.1-1.2,1.7c0,0.4,0.2,0.7,0.6,0.9c0.4,0.2,1,0.3,2,0.3h3
		c1.9,0,3.4,0.4,4.3,1.2c1,0.8,1.5,2,1.5,3.5c0,2-0.8,3.5-2.4,4.5c-1.6,1.1-3.9,1.6-7,1.6c-2.4,0-4.2-0.4-5.4-1.2
		c-1.2-0.8-1.9-2-1.9-3.6c0-1.1,0.3-2,1-2.7s1.6-1.2,2.8-1.5c-0.5-0.2-0.9-0.5-1.2-1c-0.3-0.5-0.5-1-0.5-1.5c0-0.6,0.2-1.2,0.5-1.6
		c0.4-0.4,0.9-0.9,1.6-1.3c-0.9-0.4-1.6-1-2.2-1.9c-0.6-0.9-0.8-1.9-0.8-3.1c0-1.9,0.6-3.3,1.8-4.4c1.2-1,2.9-1.5,5.1-1.5
		c0.5,0,1,0,1.5,0.1c0.5,0.1,0.9,0.1,1.2,0.2H340.5z M326.9,170.7c0,0.8,0.4,1.4,1.1,1.8c0.7,0.4,1.7,0.6,3,0.6c2,0,3.5-0.3,4.5-0.9
		c1-0.6,1.5-1.3,1.5-2.3c0-0.8-0.3-1.3-0.8-1.6c-0.5-0.3-1.5-0.5-3-0.5h-2.8c-1.1,0-1.9,0.2-2.5,0.7
		C327.2,169.2,326.9,169.9,326.9,170.7z M328.5,156.4c0,1.1,0.3,1.9,0.8,2.5c0.6,0.6,1.4,0.9,2.4,0.9c2.1,0,3.2-1.1,3.2-3.4
		c0-1.1-0.3-2-0.8-2.6c-0.5-0.6-1.3-0.9-2.4-0.9c-1.1,0-1.9,0.3-2.4,0.9C328.8,154.3,328.5,155.2,328.5,156.4z"/>
	<path class="st1" d="M358.9,168h-3.7v-10.6c0-1.3-0.3-2.3-0.8-3c-0.5-0.7-1.4-1-2.6-1c-1.6,0-2.7,0.5-3.4,1.4
		c-0.7,0.9-1.1,2.5-1.1,4.6v8.6h-3.7v-17.3h2.9l0.5,2.3h0.2c0.5-0.8,1.3-1.5,2.2-1.9c1-0.4,2-0.7,3.2-0.7c4.1,0,6.2,2.1,6.2,6.3V168
		z"/>
	<path class="st1" d="M371.2,162c0-1.4,0.3-2.6,1-3.6c0.7-1,1.9-2,3.6-3c-1-1.2-1.7-2.1-2-2.9s-0.5-1.6-0.5-2.5
		c0-1.6,0.6-2.8,1.7-3.8c1.1-0.9,2.6-1.4,4.6-1.4c1.8,0,3.3,0.4,4.3,1.3c1.1,0.9,1.6,2.1,1.6,3.6c0,1.2-0.4,2.3-1.1,3.2
		s-1.9,1.9-3.5,2.9l5.4,5.2c0.8-1.1,1.5-2.8,2.1-4.9h3.8c-0.7,3-1.9,5.4-3.5,7.2l4.7,4.5h-4.7l-2.3-2.3c-1.1,0.9-2.2,1.5-3.4,1.9
		s-2.5,0.6-4,0.6c-2.4,0-4.3-0.6-5.6-1.7C371.9,165.5,371.2,164,371.2,162z M379.1,165.2c1.9,0,3.5-0.6,4.9-1.7l-6-5.9
		c-1.1,0.7-1.9,1.4-2.3,2c-0.4,0.6-0.6,1.3-0.6,2.1c0,1,0.4,1.9,1.1,2.5C376.9,164.9,377.8,165.2,379.1,165.2z M376.7,150.1
		c0,0.7,0.2,1.3,0.5,1.9c0.3,0.6,0.8,1.2,1.5,1.9c1.2-0.7,2-1.3,2.5-1.9c0.5-0.6,0.7-1.2,0.7-1.9c0-0.7-0.2-1.2-0.7-1.6
		s-1.1-0.6-1.8-0.6c-0.8,0-1.5,0.2-2,0.6S376.7,149.4,376.7,150.1z"/>
	<path class="st1" d="M423.3,156.4c0,3.8-1,6.7-3.1,8.6c-2.1,2-5.1,3-9,3h-6.4v-22.8h7.1c3.6,0,6.5,1,8.5,2.9
		C422.3,150.1,423.3,152.9,423.3,156.4z M419.3,156.5c0-5.5-2.6-8.2-7.7-8.2h-3.2v16.6h2.7C416.6,164.9,419.3,162.1,419.3,156.5z"/>
	<path class="st1" d="M435.3,168.4c-2.7,0-4.8-0.8-6.3-2.4c-1.5-1.6-2.3-3.7-2.3-6.5c0-2.8,0.7-5,2.1-6.7c1.4-1.6,3.3-2.4,5.8-2.4
		c2.3,0,4.1,0.7,5.4,2.1c1.3,1.4,2,3.3,2,5.7v2h-11.5c0.1,1.7,0.5,3,1.4,3.9c0.9,0.9,2.1,1.4,3.6,1.4c1,0,2-0.1,2.9-0.3
		c0.9-0.2,1.8-0.5,2.8-1v3c-0.9,0.4-1.8,0.7-2.7,0.9C437.6,168.3,436.5,168.4,435.3,168.4z M434.7,153.2c-1.2,0-2.1,0.4-2.8,1.1
		c-0.7,0.7-1.1,1.8-1.3,3.2h7.8c0-1.4-0.4-2.5-1-3.2C436.7,153.6,435.8,153.2,434.7,153.2z"/>
	<path class="st1" d="M450.2,168l-6.6-17.3h3.9l3.5,10c0.6,1.7,1,3.1,1.1,4.1h0.1c0.1-0.8,0.5-2.1,1.1-4.1l3.5-10h3.9l-6.6,17.3
		H450.2z"/>
	<path class="st1" d="M470.9,168.4c-2.7,0-4.8-0.8-6.3-2.4c-1.5-1.6-2.3-3.7-2.3-6.5c0-2.8,0.7-5,2.1-6.7c1.4-1.6,3.3-2.4,5.8-2.4
		c2.3,0,4.1,0.7,5.4,2.1c1.3,1.4,2,3.3,2,5.7v2h-11.5c0.1,1.7,0.5,3,1.4,3.9c0.9,0.9,2.1,1.4,3.6,1.4c1,0,2-0.1,2.9-0.3
		c0.9-0.2,1.8-0.5,2.8-1v3c-0.9,0.4-1.8,0.7-2.7,0.9C473.1,168.3,472.1,168.4,470.9,168.4z M470.2,153.2c-1.2,0-2.1,0.4-2.8,1.1
		c-0.7,0.7-1.1,1.8-1.3,3.2h7.8c0-1.4-0.4-2.5-1-3.2C472.3,153.6,471.4,153.2,470.2,153.2z"/>
	<path class="st1" d="M485.5,168h-3.7v-24.3h3.7V168z"/>
	<path class="st1" d="M506,159.4c0,2.8-0.7,5-2.2,6.6c-1.4,1.6-3.5,2.4-6,2.4c-1.6,0-3-0.4-4.3-1.1c-1.2-0.7-2.2-1.8-2.9-3.1
		c-0.7-1.4-1-2.9-1-4.8c0-2.8,0.7-5,2.2-6.6c1.4-1.6,3.5-2.4,6.1-2.4c2.5,0,4.5,0.8,5.9,2.4C505.3,154.5,506,156.6,506,159.4z
		 M493.5,159.4c0,4,1.5,6,4.4,6c2.9,0,4.4-2,4.4-6c0-3.9-1.5-5.9-4.4-5.9c-1.5,0-2.7,0.5-3.4,1.5C493.8,156,493.5,157.5,493.5,159.4
		z"/>
	<path class="st1" d="M519,168.4c-2.2,0-3.9-0.8-5.1-2.4h-0.2c0.1,1.5,0.2,2.3,0.2,2.7v7.1h-3.7v-25h3c0.1,0.3,0.3,1.1,0.5,2.3h0.2
		c1.1-1.8,2.9-2.6,5.2-2.6c2.2,0,3.8,0.8,5,2.3s1.8,3.8,1.8,6.6c0,2.8-0.6,5-1.8,6.6C522.9,167.6,521.2,168.4,519,168.4z
		 M518.1,153.4c-1.5,0-2.5,0.4-3.2,1.3c-0.7,0.9-1,2.2-1,4.1v0.5c0,2.1,0.3,3.6,1,4.6c0.7,0.9,1.8,1.4,3.3,1.4
		c1.3,0,2.2-0.5,2.9-1.6c0.7-1,1-2.5,1-4.5c0-1.9-0.3-3.4-1-4.4C520.5,153.9,519.5,153.4,518.1,153.4z"/>
	<path class="st1" d="M544.8,168h-3.7v-10.7c0-1.3-0.2-2.3-0.8-3c-0.5-0.7-1.3-1-2.3-1c-1.4,0-2.5,0.5-3.1,1.4c-0.7,0.9-1,2.5-1,4.6
		v8.6h-3.7v-17.3h2.9l0.5,2.3h0.2c0.5-0.8,1.2-1.5,2.1-1.9c0.9-0.4,1.9-0.7,3-0.7c2.7,0,4.4,0.9,5.3,2.7h0.2c0.5-0.9,1.2-1.5,2.2-2
		c0.9-0.5,2-0.7,3.2-0.7c2.1,0,3.6,0.5,4.5,1.6c0.9,1,1.4,2.6,1.4,4.8V168H552v-10.7c0-1.3-0.3-2.3-0.8-3c-0.5-0.7-1.3-1-2.4-1
		c-1.4,0-2.5,0.4-3.1,1.3c-0.7,0.9-1,2.3-1,4.1V168z"/>
	<path class="st1" d="M568.3,168.4c-2.7,0-4.8-0.8-6.3-2.4c-1.5-1.6-2.3-3.7-2.3-6.5c0-2.8,0.7-5,2.1-6.7c1.4-1.6,3.3-2.4,5.8-2.4
		c2.3,0,4.1,0.7,5.4,2.1c1.3,1.4,2,3.3,2,5.7v2h-11.5c0.1,1.7,0.5,3,1.4,3.9c0.9,0.9,2.1,1.4,3.6,1.4c1,0,2-0.1,2.9-0.3
		c0.9-0.2,1.8-0.5,2.8-1v3c-0.9,0.4-1.8,0.7-2.7,0.9C570.6,168.3,569.5,168.4,568.3,168.4z M567.7,153.2c-1.2,0-2.1,0.4-2.8,1.1
		c-0.7,0.7-1.1,1.8-1.3,3.2h7.8c0-1.4-0.4-2.5-1-3.2C569.7,153.6,568.8,153.2,567.7,153.2z"/>
	<path class="st1" d="M594.4,168h-3.7v-10.6c0-1.3-0.3-2.3-0.8-3c-0.5-0.7-1.4-1-2.6-1c-1.6,0-2.7,0.5-3.4,1.4
		c-0.7,0.9-1.1,2.5-1.1,4.6v8.6h-3.7v-17.3h2.9l0.5,2.3h0.2c0.5-0.8,1.3-1.5,2.2-1.9c1-0.4,2-0.7,3.2-0.7c4.1,0,6.2,2.1,6.2,6.3V168
		z"/>
	<path class="st1" d="M606,165.4c0.9,0,1.8-0.1,2.7-0.4v2.8c-0.4,0.2-0.9,0.3-1.6,0.4c-0.6,0.1-1.3,0.2-2,0.2
		c-3.5,0-5.2-1.8-5.2-5.5v-9.3h-2.4v-1.6l2.5-1.3l1.2-3.7h2.3v3.8h4.9v2.8h-4.9v9.2c0,0.9,0.2,1.5,0.7,2
		C604.7,165.2,605.3,165.4,606,165.4z"/>
</g>
</svg>
